<?xml version="1.0" encoding="iso-8859-1"?>
<!-- Generator: Adobe Illustrator 19.0.0, SVG Export Plug-In . SVG Version: 6.00 Build 0)  -->
<svg version="1.1" id="Layer_1" xmlns="http://www.w3.org/2000/svg" xmlns:xlink="http://www.w3.org/1999/xlink" x="0px" y="0px"
	 viewBox="0 0 512 512" style="enable-background:new 0 0 512 512;" xml:space="preserve">
<path style="fill:#1D3366;" d="M492.308,72.205c-10.875,0-19.692,8.817-19.692,19.692v59.085h-59.077
	c-10.875,0-19.692,8.817-19.692,19.692s8.817,19.692,19.692,19.692h78.769c10.875,0,19.692-8.817,19.692-19.692V91.897
	C512,81.022,503.183,72.205,492.308,72.205z"/>
<g>
	<path style="fill:#385C8E;" d="M98.462,150.982H19.692C8.817,150.982,0,159.799,0,170.675s8.817,19.692,19.692,19.692h78.769
		c10.875,0,19.692-8.817,19.692-19.692S109.337,150.982,98.462,150.982z"/>
	<path style="fill:#385C8E;" d="M137.853,361.026c-10.875,0-19.692,8.817-19.692,19.692v39.385c0,10.875,8.817,19.692,19.692,19.692
		s19.692-8.817,19.692-19.692v-39.385C157.545,369.843,148.728,361.026,137.853,361.026z"/>
</g>
<path style="fill:#1D3366;" d="M374.156,361.026c-10.875,0-19.692,8.817-19.692,19.692v39.385c0,10.875,8.817,19.692,19.692,19.692
	s19.692-8.817,19.692-19.692v-39.385C393.849,369.843,385.032,361.026,374.156,361.026z"/>
<path style="fill:#D6E5F6;" d="M374.156,72.212c-15.122,0-28.928,5.715-39.39,15.09c-10.461-9.375-24.264-15.09-39.382-15.09
	c-15.117,0-28.92,5.713-39.379,15.088c-10.459-9.374-24.261-15.088-39.379-15.088c-15.121,0-28.931,5.715-39.392,15.09
	c-10.459-9.375-24.262-15.09-39.381-15.09c-32.579,0-59.083,26.498-59.083,59.07v210.054c0,32.575,26.505,59.074,59.083,59.074
	c15.118,0,28.921-5.715,39.381-15.091c10.462,9.376,24.27,15.091,39.392,15.091c15.118,0,28.92-5.715,39.379-15.09
	c10.459,9.375,24.262,15.09,39.379,15.09c15.118,0,28.921-5.715,39.382-15.091c10.462,9.376,24.267,15.091,39.39,15.091
	c32.575,0,59.074-26.499,59.074-59.074V131.282C433.231,98.71,406.732,72.212,374.156,72.212z"/>
<path style="fill:#8CB7E8;" d="M374.156,72.212c-15.122,0-28.928,5.715-39.39,15.09c-10.461-9.375-24.264-15.09-39.382-15.09
	c-15.117,0-28.92,5.713-39.379,15.088c-0.001-0.001-0.004-0.003-0.005-0.004v298.03c0.001-0.001,0.004-0.003,0.005-0.005
	c10.459,9.375,24.262,15.09,39.379,15.09c15.118,0,28.921-5.715,39.382-15.091c10.462,9.376,24.267,15.091,39.39,15.091
	c32.575,0,59.074-26.499,59.074-59.074V131.282C433.231,98.71,406.732,72.212,374.156,72.212z"/>
<g>
</g>
<g>
</g>
<g>
</g>
<g>
</g>
<g>
</g>
<g>
</g>
<g>
</g>
<g>
</g>
<g>
</g>
<g>
</g>
<g>
</g>
<g>
</g>
<g>
</g>
<g>
</g>
<g>
</g>
</svg>
